<svg width="24" height="24" viewBox="0 0 24 24" fill="none" xmlns="http://www.w3.org/2000/svg">
<path fill-rule="evenodd" clip-rule="evenodd" d="M2.25 3H21.75L22.5 3.75V13.5H21V9H3V19.5H13V21H2.25L1.5 20.25V3.75L2.25 3ZM3 7.5H21V4.5H3V7.5ZM17.7745 21.7031V24H19.8745V21.7031C20.0714 21.6266 20.2464 21.5445 20.3995 21.457C20.5527 21.3695 20.7058 21.2656 20.8589 21.1453L22.8441 22.2773L23.8941 20.4727L21.9253 19.3242C21.9581 19.1492 21.9745 18.9578 21.9745 18.75C21.9745 18.5531 21.9581 18.3617 21.9253 18.1758L23.8941 17.0273L22.8441 15.2227L20.8589 16.3547C20.6948 16.2234 20.5362 16.1141 20.3831 16.0266C20.23 15.9391 20.0605 15.8625 19.8745 15.7969V13.5H17.7745V15.7969C17.4355 15.9172 17.1073 16.1031 16.7902 16.3547L14.805 15.2227L13.755 17.0273L15.7238 18.1758C15.6909 18.3617 15.6745 18.5531 15.6745 18.75C15.6745 18.9578 15.6909 19.1492 15.7238 19.3242L13.755 20.4727L14.805 22.2773L16.7902 21.1453C17.1073 21.3969 17.4355 21.5828 17.7745 21.7031ZM17.7089 19.8656C17.4027 19.5594 17.2495 19.1875 17.2495 18.75C17.2495 18.3125 17.4027 17.9406 17.7089 17.6344C18.0152 17.3281 18.387 17.175 18.8245 17.175C19.262 17.175 19.6339 17.3281 19.9402 17.6344C20.2464 17.9406 20.3995 18.3125 20.3995 18.75C20.3995 19.1875 20.2464 19.5594 19.9402 19.8656C19.6339 20.1719 19.262 20.325 18.8245 20.325C18.387 20.325 18.0152 20.1719 17.7089 19.8656Z" fill="#d7dae0"/>
</svg>
