<svg xmlns="http://www.w3.org/2000/svg" viewBox="0 0 24 24"><defs><style>.icon-canvas-transparent{fill:#f6f6f6;opacity:0;}.cls-1{fill:#424242;}</style></defs><g id="canvas"><path class="icon-canvas-transparent" d="M24,24H0V0H24Z"/></g><g id="iconBg"><path class="cls-1" d="M22.553,18.781l-.018-.746,1.407-.943-.733-1.661-1.642.4-.54-.515.327-1.662L19.662,13l-.877,1.45-.746.018-.942-1.4-1.662.733.4,1.639-.516.54-1.658-.327-.656,1.694,1.447.877.017.746-1.4.943.732,1.661,1.642-.4.54.516-.327,1.662,1.7.648.877-1.45.746-.018.943,1.405,1.661-.733-.4-1.639.516-.54,1.653.328L24,19.659Zm-1.933.5a2.267,2.267,0,1,1-.039-1.736A2.277,2.277,0,0,1,20.62,19.277Zm-8.73,1.5a6.933,6.933,0,0,0,.69,1.436H4.123a1.355,1.355,0,0,1-1.339-1.434V2.434A1.434,1.434,0,0,1,4.218,1h11.7a1.439,1.439,0,0,1,1.044.453L20.808,5.6a1.427,1.427,0,0,1,.391.985v.4L21.218,7H21.2v5.043a6.871,6.871,0,0,0-1.436-.423V7H16.187a.72.72,0,0,1-.719-.719V2.438H4.218V20.782Z"/><path class="cls-1" d="M12,10h1v1H12v1H11V11H10V10h1V9h1Zm5,0H16V9H15v1H14v1h1v1h1V11h1Z"/><path class="cls-1" d="M12.313,14.49A5.283,5.283,0,0,1,9.865,15a4,4,0,0,1-3.036-1.2,4.361,4.361,0,0,1-1.142-3.14A4.571,4.571,0,0,1,6.972,7.287,4.394,4.394,0,0,1,10.218,6a5.318,5.318,0,0,1,2.1.358V7.791a3.741,3.741,0,0,0-1.944-.522,3.05,3.05,0,0,0-2.292.9A3.324,3.324,0,0,0,7.2,10.591a3.173,3.173,0,0,0,.82,2.293,2.857,2.857,0,0,0,2.156.853,3.858,3.858,0,0,0,2.138-.583Z"/><path class="cls-1" d="M22.553,18.781l-.018-.746,1.407-.943-.733-1.661-1.642.4-.54-.515.327-1.662L19.662,13l-.877,1.45-.746.018-.942-1.4-1.662.733.4,1.639-.516.54-1.658-.327-.656,1.694,1.447.877.017.746-1.4.943.732,1.661,1.642-.4.54.516-.327,1.662,1.7.648.877-1.45.746-.018.943,1.405,1.661-.733-.4-1.639.516-.54,1.653.328L24,19.659Zm-1.933.5a2.267,2.267,0,1,1-.039-1.736A2.277,2.277,0,0,1,20.62,19.277Zm-8.73,1.5a6.933,6.933,0,0,0,.69,1.436H4.123a1.355,1.355,0,0,1-1.339-1.434V2.434A1.434,1.434,0,0,1,4.218,1h11.7a1.439,1.439,0,0,1,1.044.453L20.808,5.6a1.427,1.427,0,0,1,.391.985v.4L21.218,7H21.2v5.043a6.871,6.871,0,0,0-1.436-.423V7H16.187a.72.72,0,0,1-.719-.719V2.438H4.218V20.782Z"/><path class="cls-1" d="M12,10h1v1H12v1H11V11H10V10h1V9h1Zm5,0H16V9H15v1H14v1h1v1h1V11h1Z"/><path class="cls-1" d="M12.313,14.49A5.283,5.283,0,0,1,9.865,15a4,4,0,0,1-3.036-1.2,4.361,4.361,0,0,1-1.142-3.14A4.571,4.571,0,0,1,6.972,7.287,4.394,4.394,0,0,1,10.218,6a5.318,5.318,0,0,1,2.1.358V7.791a3.741,3.741,0,0,0-1.944-.522,3.05,3.05,0,0,0-2.292.9A3.324,3.324,0,0,0,7.2,10.591a3.173,3.173,0,0,0,.82,2.293,2.857,2.857,0,0,0,2.156.853,3.858,3.858,0,0,0,2.138-.583Z"/></g></svg>