<svg width="14" height="13" viewBox="0 0 14 13" fill="none" xmlns="http://www.w3.org/2000/svg">
<path d="M2.504 0.499999H1.496V5.492H2.504V0.499999ZM8.6 5.492H5.4L5 4.948V3.956L5.4 3.492H8.6L9 4.004V4.996L8.6 5.492ZM3.608 8.5H0.408L0.00800002 8.004V6.996L0.408 6.5H3.608L4.008 6.996V8.004L3.608 8.5ZM7.496 0.499999H6.504V2.5H7.496V0.499999ZM6.504 6.5H7.496V12.5H6.504V6.5ZM2.504 9.492H1.496V12.5H2.504V9.492ZM10.408 9.492H13.592L13.992 8.996V8.052L13.592 7.556H10.408L10.008 8.052V8.996L10.408 9.492ZM12.504 0.499999H11.496V6.5H12.504V0.499999ZM11.496 10.5H12.504V12.5H11.496V10.5Z" fill="#C5C5C5"/>
</svg>
