<svg width="14" height="15" viewBox="0 0 14 15" fill="none" xmlns="http://www.w3.org/2000/svg">
<path d="M9.88 3.996V3.42C9.88 2.89733 9.74667 2.412 9.48 1.964C9.224 1.50533 8.86667 1.148 8.408 0.891999C7.96 0.625333 7.47467 0.492 6.952 0.492C6.44 0.492 5.95467 0.625333 5.496 0.891999C5.048 1.148 4.69067 1.50533 4.424 1.964C4.168 2.412 4.04 2.89733 4.04 3.42V3.996H3.208L1.544 2.332L0.952 2.924L2.568 4.54L2.552 4.588C2.21067 5.50533 2.04 6.44933 2.04 7.42C2.04 7.612 2.04533 7.804 2.056 7.996L2.072 8.044H0.00800002V8.876H2.168V8.908C2.33867 9.84667 2.65867 10.6947 3.128 11.452L3.16 11.5L1.208 13.468L1.8 14.06L3.656 12.188L3.72 12.252C4.15733 12.7533 4.65333 13.1427 5.208 13.42C5.76267 13.6973 6.344 13.836 6.952 13.836C7.56 13.836 8.136 13.7027 8.68 13.436C9.224 13.1693 9.71467 12.7907 10.152 12.3L10.216 12.236L12.12 14.156L12.712 13.564L10.728 11.548L10.76 11.5C11.24 10.732 11.5653 9.868 11.736 8.908L11.752 8.876H13.928V8.044H11.848L11.864 7.996C11.8747 7.804 11.88 7.612 11.88 7.42C11.88 6.428 11.7093 5.47333 11.368 4.556L11.336 4.508L12.92 2.94L12.328 2.348L10.664 3.996H9.88ZM4.872 3.996V3.42C4.872 3.04667 4.96267 2.7 5.144 2.38C5.336 2.06 5.592 1.80933 5.912 1.628C6.24267 1.436 6.58933 1.34 6.952 1.34C7.32533 1.34 7.672 1.436 7.992 1.628C8.32267 1.80933 8.57867 2.06 8.76 2.38C8.952 2.7 9.048 3.04667 9.048 3.42V3.996H4.872ZM10.568 4.844L10.6 4.892C10.8987 5.68133 11.048 6.524 11.048 7.42C11.048 8.19867 10.9307 8.94533 10.696 9.66C10.472 10.3427 10.1627 10.94 9.768 11.452C9.384 11.9533 8.94667 12.3373 8.456 12.604C7.976 12.8707 7.47467 13.004 6.952 13.004C6.44 13.004 5.93867 12.8707 5.448 12.604C4.968 12.3373 4.53067 11.9533 4.136 11.452C3.752 10.94 3.448 10.3427 3.224 9.66C2.98933 8.94533 2.872 8.19867 2.872 7.42C2.872 6.524 3.02133 5.68133 3.32 4.892L3.352 4.844H10.568Z" fill="#C5C5C5"/>
</svg>
